<svg width="252" height="40" viewBox="0 0 252 40" fill="none" xmlns="http://www.w3.org/2000/svg">
<path d="M60 18L0 20L60 22V18Z" fill="#507991"/>
<rect x="60" width="132" height="40" rx="20" fill="#C9D5DD"/>
<path d="M77.0786 26.16C76.2253 26.16 75.4306 26.0213 74.6946 25.744C73.9693 25.456 73.3346 25.056 72.7906 24.544C72.2573 24.0213 71.8413 23.408 71.5426 22.704C71.244 22 71.0946 21.232 71.0946 20.4C71.0946 19.568 71.244 18.8 71.5426 18.096C71.8413 17.392 72.2626 16.784 72.8066 16.272C73.3506 15.7493 73.9853 15.3493 74.7106 15.072C75.436 14.784 76.2306 14.64 77.0946 14.64C78.012 14.64 78.8493 14.8 79.6066 15.12C80.364 15.4293 81.004 15.8933 81.5266 16.512L80.1826 17.776C79.7773 17.3387 79.324 17.0133 78.8226 16.8C78.3213 16.576 77.7773 16.464 77.1906 16.464C76.604 16.464 76.0653 16.56 75.5746 16.752C75.0946 16.944 74.6733 17.216 74.3106 17.568C73.9586 17.92 73.6813 18.336 73.4786 18.816C73.2866 19.296 73.1906 19.824 73.1906 20.4C73.1906 20.976 73.2866 21.504 73.4786 21.984C73.6813 22.464 73.9586 22.88 74.3106 23.232C74.6733 23.584 75.0946 23.856 75.5746 24.048C76.0653 24.24 76.604 24.336 77.1906 24.336C77.7773 24.336 78.3213 24.2293 78.8226 24.016C79.324 23.792 79.7773 23.456 80.1826 23.008L81.5266 24.288C81.004 24.896 80.364 25.36 79.6066 25.68C78.8493 26 78.0066 26.16 77.0786 26.16ZM86.8395 26.112C85.9648 26.112 85.1862 25.9253 84.5035 25.552C83.8208 25.168 83.2822 24.6453 82.8875 23.984C82.4928 23.3227 82.2955 22.5707 82.2955 21.728C82.2955 20.8747 82.4928 20.1227 82.8875 19.472C83.2822 18.8107 83.8208 18.2933 84.5035 17.92C85.1862 17.5467 85.9648 17.36 86.8395 17.36C87.7248 17.36 88.5088 17.5467 89.1915 17.92C89.8848 18.2933 90.4235 18.8053 90.8075 19.456C91.2022 20.1067 91.3995 20.864 91.3995 21.728C91.3995 22.5707 91.2022 23.3227 90.8075 23.984C90.4235 24.6453 89.8848 25.168 89.1915 25.552C88.5088 25.9253 87.7248 26.112 86.8395 26.112ZM86.8395 24.4C87.3302 24.4 87.7675 24.2933 88.1515 24.08C88.5355 23.8667 88.8342 23.5573 89.0475 23.152C89.2715 22.7467 89.3835 22.272 89.3835 21.728C89.3835 21.1733 89.2715 20.6987 89.0475 20.304C88.8342 19.8987 88.5355 19.5893 88.1515 19.376C87.7675 19.1627 87.3355 19.056 86.8555 19.056C86.3648 19.056 85.9275 19.1627 85.5435 19.376C85.1702 19.5893 84.8715 19.8987 84.6475 20.304C84.4235 20.6987 84.3115 21.1733 84.3115 21.728C84.3115 22.272 84.4235 22.7467 84.6475 23.152C84.8715 23.5573 85.1702 23.8667 85.5435 24.08C85.9275 24.2933 86.3595 24.4 86.8395 24.4ZM104.096 17.36C104.779 17.36 105.381 17.4933 105.904 17.76C106.437 18.0267 106.853 18.4373 107.152 18.992C107.451 19.536 107.6 20.24 107.6 21.104V26H105.6V21.36C105.6 20.6027 105.435 20.0373 105.104 19.664C104.773 19.2907 104.299 19.104 103.68 19.104C103.243 19.104 102.853 19.2 102.512 19.392C102.181 19.584 101.92 19.8667 101.728 20.24C101.547 20.6133 101.456 21.088 101.456 21.664V26H99.456V21.36C99.456 20.6027 99.2907 20.0373 98.96 19.664C98.6293 19.2907 98.1547 19.104 97.536 19.104C97.0987 19.104 96.7093 19.2 96.368 19.392C96.0373 19.584 95.776 19.8667 95.584 20.24C95.4027 20.6133 95.312 21.088 95.312 21.664V26H93.312V17.456H95.216V19.728L94.88 19.056C95.168 18.5013 95.584 18.08 96.128 17.792C96.6827 17.504 97.312 17.36 98.016 17.36C98.816 17.36 99.5093 17.5573 100.096 17.952C100.693 18.3467 101.088 18.944 101.28 19.744L100.496 19.472C100.773 18.832 101.232 18.32 101.872 17.936C102.512 17.552 103.253 17.36 104.096 17.36ZM110.156 26V17.456H112.156V26H110.156ZM111.164 16.048C110.79 16.048 110.481 15.9307 110.236 15.696C110.001 15.4613 109.884 15.1787 109.884 14.848C109.884 14.5067 110.001 14.224 110.236 14C110.481 13.7653 110.79 13.648 111.164 13.648C111.537 13.648 111.841 13.76 112.076 13.984C112.321 14.1973 112.444 14.4693 112.444 14.8C112.444 15.152 112.326 15.4507 112.092 15.696C111.857 15.9307 111.548 16.048 111.164 16.048ZM119.629 17.36C120.311 17.36 120.919 17.4933 121.453 17.76C121.997 18.0267 122.423 18.4373 122.733 18.992C123.042 19.536 123.197 20.24 123.197 21.104V26H121.197V21.36C121.197 20.6027 121.015 20.0373 120.653 19.664C120.301 19.2907 119.805 19.104 119.165 19.104C118.695 19.104 118.279 19.2 117.917 19.392C117.554 19.584 117.271 19.872 117.069 20.256C116.877 20.6293 116.781 21.104 116.781 21.68V26H114.781V17.456H116.685V19.76L116.349 19.056C116.647 18.512 117.079 18.096 117.645 17.808C118.221 17.5093 118.882 17.36 119.629 17.36ZM129.622 29.216C128.832 29.216 128.059 29.1093 127.302 28.896C126.555 28.6933 125.942 28.3947 125.462 28L126.358 26.496C126.731 26.8053 127.2 27.0507 127.766 27.232C128.342 27.424 128.923 27.52 129.51 27.52C130.448 27.52 131.136 27.3013 131.574 26.864C132.011 26.4373 132.23 25.792 132.23 24.928V23.408L132.39 21.472L132.326 19.536V17.456H134.23V24.704C134.23 26.2507 133.835 27.3867 133.046 28.112C132.256 28.848 131.115 29.216 129.622 29.216ZM129.366 25.616C128.555 25.616 127.819 25.4453 127.158 25.104C126.507 24.752 125.99 24.2667 125.606 23.648C125.232 23.0293 125.046 22.304 125.046 21.472C125.046 20.6507 125.232 19.9307 125.606 19.312C125.99 18.6933 126.507 18.2133 127.158 17.872C127.819 17.5307 128.555 17.36 129.366 17.36C130.091 17.36 130.742 17.504 131.318 17.792C131.894 18.08 132.352 18.528 132.694 19.136C133.046 19.744 133.222 20.5227 133.222 21.472C133.222 22.4213 133.046 23.2053 132.694 23.824C132.352 24.432 131.894 24.8853 131.318 25.184C130.742 25.472 130.091 25.616 129.366 25.616ZM129.67 23.92C130.171 23.92 130.619 23.8187 131.014 23.616C131.408 23.4027 131.712 23.1147 131.926 22.752C132.15 22.3787 132.262 21.952 132.262 21.472C132.262 20.992 132.15 20.5707 131.926 20.208C131.712 19.8347 131.408 19.552 131.014 19.36C130.619 19.1573 130.171 19.056 129.67 19.056C129.168 19.056 128.715 19.1573 128.31 19.36C127.915 19.552 127.606 19.8347 127.382 20.208C127.168 20.5707 127.062 20.992 127.062 21.472C127.062 21.952 127.168 22.3787 127.382 22.752C127.606 23.1147 127.915 23.4027 128.31 23.616C128.715 23.8187 129.168 23.92 129.67 23.92ZM144.945 26.16C144.07 26.16 143.233 26.0373 142.433 25.792C141.633 25.536 140.998 25.2107 140.529 24.816L141.249 23.2C141.697 23.552 142.251 23.8453 142.913 24.08C143.574 24.3147 144.251 24.432 144.945 24.432C145.531 24.432 146.006 24.368 146.369 24.24C146.731 24.112 146.998 23.9413 147.169 23.728C147.339 23.504 147.425 23.2533 147.425 22.976C147.425 22.6347 147.302 22.3627 147.057 22.16C146.811 21.9467 146.491 21.7813 146.097 21.664C145.713 21.536 145.281 21.4187 144.801 21.312C144.331 21.2053 143.857 21.0827 143.377 20.944C142.907 20.7947 142.475 20.608 142.081 20.384C141.697 20.1493 141.382 19.84 141.137 19.456C140.891 19.072 140.769 18.5813 140.769 17.984C140.769 17.376 140.929 16.8213 141.249 16.32C141.579 15.808 142.075 15.4027 142.737 15.104C143.409 14.7947 144.257 14.64 145.281 14.64C145.953 14.64 146.619 14.7253 147.281 14.896C147.942 15.0667 148.518 15.312 149.009 15.632L148.353 17.248C147.851 16.9493 147.334 16.7307 146.801 16.592C146.267 16.4427 145.755 16.368 145.265 16.368C144.689 16.368 144.219 16.4373 143.857 16.576C143.505 16.7147 143.243 16.896 143.073 17.12C142.913 17.344 142.833 17.6 142.833 17.888C142.833 18.2293 142.95 18.5067 143.185 18.72C143.43 18.9227 143.745 19.0827 144.129 19.2C144.523 19.3173 144.961 19.4347 145.441 19.552C145.921 19.6587 146.395 19.7813 146.865 19.92C147.345 20.0587 147.777 20.24 148.161 20.464C148.555 20.688 148.87 20.992 149.105 21.376C149.35 21.76 149.473 22.2453 149.473 22.832C149.473 23.4293 149.307 23.984 148.977 24.496C148.657 24.9973 148.161 25.4027 147.489 25.712C146.817 26.0107 145.969 26.16 144.945 26.16ZM155.183 26.112C154.309 26.112 153.53 25.9253 152.847 25.552C152.165 25.168 151.626 24.6453 151.231 23.984C150.837 23.3227 150.639 22.5707 150.639 21.728C150.639 20.8747 150.837 20.1227 151.231 19.472C151.626 18.8107 152.165 18.2933 152.847 17.92C153.53 17.5467 154.309 17.36 155.183 17.36C156.069 17.36 156.853 17.5467 157.535 17.92C158.229 18.2933 158.767 18.8053 159.151 19.456C159.546 20.1067 159.743 20.864 159.743 21.728C159.743 22.5707 159.546 23.3227 159.151 23.984C158.767 24.6453 158.229 25.168 157.535 25.552C156.853 25.9253 156.069 26.112 155.183 26.112ZM155.183 24.4C155.674 24.4 156.111 24.2933 156.495 24.08C156.879 23.8667 157.178 23.5573 157.391 23.152C157.615 22.7467 157.727 22.272 157.727 21.728C157.727 21.1733 157.615 20.6987 157.391 20.304C157.178 19.8987 156.879 19.5893 156.495 19.376C156.111 19.1627 155.679 19.056 155.199 19.056C154.709 19.056 154.271 19.1627 153.887 19.376C153.514 19.5893 153.215 19.8987 152.991 20.304C152.767 20.6987 152.655 21.1733 152.655 21.728C152.655 22.272 152.767 22.7467 152.991 23.152C153.215 23.5573 153.514 23.8667 153.887 24.08C154.271 24.2933 154.703 24.4 155.183 24.4ZM165.496 26.112C164.621 26.112 163.842 25.9253 163.16 25.552C162.477 25.168 161.938 24.6453 161.544 23.984C161.149 23.3227 160.952 22.5707 160.952 21.728C160.952 20.8747 161.149 20.1227 161.544 19.472C161.938 18.8107 162.477 18.2933 163.16 17.92C163.842 17.5467 164.621 17.36 165.496 17.36C166.381 17.36 167.165 17.5467 167.848 17.92C168.541 18.2933 169.08 18.8053 169.464 19.456C169.858 20.1067 170.056 20.864 170.056 21.728C170.056 22.5707 169.858 23.3227 169.464 23.984C169.08 24.6453 168.541 25.168 167.848 25.552C167.165 25.9253 166.381 26.112 165.496 26.112ZM165.496 24.4C165.986 24.4 166.424 24.2933 166.808 24.08C167.192 23.8667 167.49 23.5573 167.704 23.152C167.928 22.7467 168.04 22.272 168.04 21.728C168.04 21.1733 167.928 20.6987 167.704 20.304C167.49 19.8987 167.192 19.5893 166.808 19.376C166.424 19.1627 165.992 19.056 165.512 19.056C165.021 19.056 164.584 19.1627 164.2 19.376C163.826 19.5893 163.528 19.8987 163.304 20.304C163.08 20.6987 162.968 21.1733 162.968 21.728C162.968 22.272 163.08 22.7467 163.304 23.152C163.528 23.5573 163.826 23.8667 164.2 24.08C164.584 24.2933 165.016 24.4 165.496 24.4ZM176.816 17.36C177.499 17.36 178.107 17.4933 178.64 17.76C179.184 18.0267 179.611 18.4373 179.92 18.992C180.23 19.536 180.384 20.24 180.384 21.104V26H178.384V21.36C178.384 20.6027 178.203 20.0373 177.84 19.664C177.488 19.2907 176.992 19.104 176.352 19.104C175.883 19.104 175.467 19.2 175.104 19.392C174.742 19.584 174.459 19.872 174.256 20.256C174.064 20.6293 173.968 21.104 173.968 21.68V26H171.968V17.456H173.872V19.76L173.536 19.056C173.835 18.512 174.267 18.096 174.832 17.808C175.408 17.5093 176.07 17.36 176.816 17.36Z" fill="#507991"/>
<path d="M192 18L252 20L192 22V18Z" fill="#507991"/>
</svg>
